<svg width="23" height="23" viewBox="0 0 23 23" fill="none" xmlns="http://www.w3.org/2000/svg">
<path d="M17.521 0.940045C17.819 0.642014 18.1729 0.405603 18.5623 0.24431C18.9517 0.0830163 19.369 3.14027e-09 19.7905 0C20.212 -3.14027e-09 20.6293 0.0830163 21.0187 0.24431C21.4081 0.405603 21.7619 0.642014 22.06 0.940045C22.358 1.23808 22.5944 1.59189 22.7557 1.98129C22.917 2.37068 23 2.78803 23 3.20951C23 3.63099 22.917 4.04835 22.7557 4.43774C22.5944 4.82714 22.358 5.18095 22.06 5.47898L6.74104 20.7979L0.5 22.5L2.2021 16.259L17.521 0.940045Z" fill="white"/>
</svg>
