<svg width="35" height="33" viewBox="0 0 35 33" fill="none" xmlns="http://www.w3.org/2000/svg">
<path d="M32.9056 29.8619H31.3198V11.9898C31.3198 11.0066 30.8757 10.0868 30.0987 9.48419L28.1481 7.96181L28.1164 4.07657C28.1164 3.20438 27.4028 2.50662 26.5306 2.50662H21.123L18.998 0.857378C17.8562 -0.0465347 16.2387 -0.0465347 15.0969 0.857378L3.99624 9.48419C3.2192 10.0868 2.77517 11.0066 2.77517 11.9739L2.69588 29.8619H1.18936C0.539176 29.8619 0 30.4011 0 31.0513C0 31.7015 0.539176 32.2407 1.18936 32.2407H32.9056C33.5558 32.2407 34.0949 31.7015 34.0949 31.0513C34.0949 30.4011 33.5558 29.8619 32.9056 29.8619ZM8.32551 16.3824V14.0037C8.32551 13.1315 9.03912 12.4179 9.91132 12.4179H13.0829C13.9551 12.4179 14.6687 13.1315 14.6687 14.0037V16.3824C14.6687 17.2546 13.9551 17.9682 13.0829 17.9682H9.91132C9.03912 17.9682 8.32551 17.2546 8.32551 16.3824ZM21.012 29.8619H13.0829V25.5008C13.0829 24.1846 14.1454 23.1221 15.4617 23.1221H18.6333C19.9495 23.1221 21.012 24.1846 21.012 25.5008V29.8619ZM25.7694 16.3824C25.7694 17.2546 25.0558 17.9682 24.1836 17.9682H21.012C20.1398 17.9682 19.4262 17.2546 19.4262 16.3824V14.0037C19.4262 13.1315 20.1398 12.4179 21.012 12.4179H24.1836C25.0558 12.4179 25.7694 13.1315 25.7694 14.0037V16.3824Z" fill="#878C99"/>
</svg>
