<svg width="31" height="32" viewBox="0 0 31 32" fill="none" xmlns="http://www.w3.org/2000/svg">
<path d="M29.9991 23.4608V27.977C30.0008 28.3962 29.9147 28.8112 29.7464 29.1954C29.5781 29.5795 29.3313 29.9243 29.0217 30.2078C28.7122 30.4912 28.3467 30.707 27.9488 30.8413C27.5508 30.9756 27.1292 31.0255 26.7108 30.9878C22.0692 30.4844 17.6106 28.9015 13.6934 26.3662C10.0488 24.0549 6.95889 20.9711 4.64301 17.3338C2.09379 13.4065 0.507362 8.93512 0.0122432 4.28192C-0.0254508 3.86563 0.0241216 3.44607 0.157804 3.04994C0.291486 2.65381 0.506348 2.28981 0.788712 1.9811C1.07108 1.67239 1.41475 1.42574 1.79786 1.25685C2.18097 1.08796 2.59512 1.00054 3.01394 1.00015H7.53912C8.27115 0.992955 8.98083 1.25167 9.53587 1.72806C10.0909 2.20445 10.4534 2.86601 10.5559 3.58944C10.7469 5.03473 11.1011 6.45381 11.6118 7.81962C11.8147 8.35844 11.8586 8.94403 11.7383 9.507C11.618 10.07 11.3386 10.5867 10.933 10.996L9.01734 12.9079C11.1646 16.6767 14.2914 19.7973 18.0677 21.9403L19.9833 20.0284C20.3935 19.6237 20.9112 19.3448 21.4753 19.2247C22.0394 19.1046 22.6262 19.1485 23.1661 19.351C24.5346 19.8607 25.9565 20.2142 27.4046 20.4048C28.1374 20.508 28.8065 20.8763 29.2849 21.4398C29.7633 22.0032 30.0174 22.7225 29.9991 23.4608Z" fill="#878C99" stroke="#878C99" stroke-width="2" stroke-linecap="round" stroke-linejoin="round"/>
</svg>
