<svg width="30" height="42" viewBox="0 0 30 42" fill="none" xmlns="http://www.w3.org/2000/svg">
<path d="M23.2467 3.17H6.34001C5.47354 3.17 4.755 2.45147 4.755 1.585C4.755 0.718533 5.47354 0 6.34001 0H23.2467C24.1131 0 24.8317 0.718533 24.8317 1.585C24.8317 2.45147 24.1131 3.17 23.2467 3.17Z" fill="#878C99"/>
<path d="M23.2467 41.21H6.34001C5.47354 41.21 4.755 40.4915 4.755 39.625C4.755 38.7586 5.47354 38.04 6.34001 38.04H23.2467C24.1131 38.04 24.8317 38.7586 24.8317 39.625C24.8317 40.4915 24.1131 41.21 23.2467 41.21Z" fill="#878C99"/>
<path d="M22.19 5.81165H7.39667C2.4726 5.81165 0 8.28425 0 13.2083V28.0017C0 32.9257 2.4726 35.3983 7.39667 35.3983H22.19C27.1141 35.3983 29.5867 32.9257 29.5867 28.0017V13.2083C29.5867 8.28425 27.1141 5.81165 22.19 5.81165ZM20.0767 23.2467H13.7367C12.8702 23.2467 12.1517 22.5281 12.1517 21.6616V15.3216C12.1517 14.4552 12.8702 13.7366 13.7367 13.7366C14.6031 13.7366 15.3217 14.4552 15.3217 15.3216V20.0766H20.0767C20.9431 20.0766 21.6617 20.7952 21.6617 21.6616C21.6617 22.5281 20.9431 23.2467 20.0767 23.2467Z" fill="#878C99"/>
</svg>
